<svg version="1.1" xmlns="http://www.w3.org/2000/svg" xmlns:xlink="http://www.w3.org/1999/xlink" width="60" height="36" viewBox="0,0,255.99231,153.60001"><defs><clipPath id="clip-1"><rect x="0.64258" y="0" width="58.5" height="35.5704" id="clip0_632_6281" fill="none"></rect></clipPath></defs><g fill="none" fill-rule="nonzero" stroke="none" stroke-width="1" stroke-linecap="butt" stroke-linejoin="miter" stroke-miterlimit="10" stroke-dasharray="" stroke-dashoffset="0" font-family="none" font-weight="none" font-size="none" text-anchor="none" style="mix-blend-mode: normal"><g transform="translate(0.45449,0.91648) scale(4.26667,4.26667)"><g clip-path="url(#clip-1)"><path d="M12.0504,17.5797v-6.0264h-2.1754v-1.88142h6.4379v1.88142h-2.2047v6.0264z" fill="#ffffff"></path><path d="M22.8969,17.5797l-0.4704,-1.4111h-2.7339l-0.4703,1.4111h-2.1754l2.9985,-7.90782h2.0578l2.9985,7.90782zM21.0743,11.906l-0.7644,2.5576h1.5287z" fill="#ffffff"></path><path d="M26.3652,15.0207l1.7639,-0.3234c0.2057,0.7055 0.6467,1.2053 1.5874,1.2053c0.6762,0 1.2641,-0.294 1.2641,-0.588c0,-0.3527 -0.3234,-0.4997 -1.1465,-0.7055l-0.9995,-0.2646c-1.7344,-0.4703 -2.3812,-1.1758 -2.3812,-2.2341c0,-1.4699 1.2935,-2.58696 3.2337,-2.58696c1.9402,0 3.2337,1.08766 3.2337,2.61636l-1.7638,0.3233c-0.147,-0.6761 -0.5292,-1.1758 -1.4699,-1.1758c-0.7055,0 -1.1465,0.2939 -1.1465,0.6173c0,0.294 0.3234,0.4409 1.0289,0.6173l0.9995,0.2646c1.852,0.4998 2.4694,1.2641 2.4694,2.2636c0,1.4404 -1.3229,2.5869 -3.3513,2.5869c-1.999,0.0588 -3.3219,-1.1171 -3.3219,-2.6163z" fill="#ffffff"></path><path d="M36.979,17.5797v-6.0264h-2.4399v-1.88142h6.7025v1.88142h-2.2048v6.0264z" fill="#ffffff"></path><path d="M44.9144,17.5778v-2.6163l-2.9691,-5.32088h2.4106l1.5874,3.38068l1.5874,-3.38068h2.44l-2.9985,5.32088v2.6163z" fill="#ffffff"></path><path d="M21.9566,20.0195c1.852,0 3.2043,1.3229 3.2043,3.1161c0,1.7932 -1.3523,3.1455 -3.1749,3.1455c-1.8226,0 -3.2043,-1.3523 -3.2043,-3.1161c-0.0294,-1.7932 1.3523,-3.1161 3.1749,-3.1455zM21.986,21.4894c-0.9113,0 -1.5875,0.6761 -1.6169,1.6462c0,0.9407 0.6762,1.6756 1.5875,1.6756c0.9113,0 1.5874,-0.7055 1.5874,-1.6462c0.0294,-0.9701 -0.6467,-1.6462 -1.558,-1.6756z" fill="#ffffff"></path><path d="M17.4567,22.1952c-0.441,0.1469 -0.8819,0.2645 -1.2935,0.3821c-0.6467,-0.9701 -1.2641,-1.264 -2.0578,-1.0289c-0.6761,0.2058 -1.0877,0.8231 -1.0877,1.6463c0,0.7349 0.4704,1.3816 1.1171,1.558c0.8231,0.2352 1.4405,-0.0882 2.0284,-1.0289c0.4116,0.1176 0.8525,0.2646 1.2935,0.3822c-0.1176,0.6467 -0.4116,1.1758 -0.9113,1.558c-1.4699,1.1465 -4.3508,0.7643 -5.0269,-1.6462c-0.3528,-1.2935 0.1176,-2.6752 1.1465,-3.4101c1.0583,-0.7643 2.6751,-0.7937 3.7334,-0.0588c0.5879,0.3822 0.9113,0.9407 1.0583,1.6463z" fill="#ffffff"></path><path d="M42.356,24.75v1.411h-4.1744v-5.9969h4.1744v1.411h-2.6163v0.8231h2.2929v1.4405h-2.2929v0.9113z" fill="#ffffff"></path><path d="M45.8257,22.4276h2.2636v1.4111h-2.293v0.9113h2.6164v1.411h-4.1744v-5.9969h4.1744v1.3816h-2.587z" fill="#ffffff"></path><path d="M28.308,26.161h-1.558v-5.9969h4.1744v1.3816h-2.6164v0.8525h2.2636v1.4405h-2.2636z" fill="#ffffff"></path><path d="M34.0091,23.8387v2.3223h-1.5286v-5.9969h4.1449v1.3816h-2.5869v0.8525h2.2636v1.4405z" fill="#ffffff"></path><path d="M58.0851,5.96759c-8.6133,-3.9098 -18.3731,-5.96759 -28.1624,-5.96759c-9.8186,0 -19.549,2.05779 -28.16228,5.96759c-0.55854,0.26457 -0.91131,0.82311 -0.82312,1.38166c1.08769,6.29095 2.23417,13.93415 3.43944,22.66505c0.05879,0.4704 0.41156,0.8819 0.88191,1.0583c7.79025,2.9691 16.08015,4.4978 24.66405,4.4978c8.4664,0 16.9915,-1.5581 24.6641,-4.4978c0.4998,-0.1764 0.8232,-0.5879 0.882,-1.0583c1.2052,-8.7309 2.3517,-16.3447 3.4394,-22.66505c0.0882,-0.55855 -0.2646,-1.11709 -0.8231,-1.38166zM56.7622,7.46683c-1.0583,6.17337 -2.1754,13.55197 -3.3218,21.98897c-7.3493,2.7633 -15.4629,4.2331 -23.5177,4.2331c-8.1723,0 -16.1095,-1.411 -23.51757,-4.2331c-1.14648,-8.4076 -2.26357,-15.8156 -3.32185,-21.98897c8.23112,-3.67462 17.52062,-5.58542 26.86882,-5.58542c9.3189,0 18.579,1.9108 26.8101,5.58542z" fill="#ffffff"></path></g></g></g></svg>